<svg width="27" height="27" viewBox="0 0 27 27" fill="none" xmlns="http://www.w3.org/2000/svg">
<path fill-rule="evenodd" clip-rule="evenodd" d="M22.348 19.35C22.2026 19.2148 22.0923 19.0748 22.0549 18.945C21.9081 18.4309 22.1016 16.9366 22.3928 16.4701C22.6831 16.0018 22.3615 14.5969 22.2666 14.3643C22.1689 14.1304 22.1362 13.8269 21.8029 13.9189C21.4678 14.0128 20.7148 13.9778 20.0337 13.8377C19.3508 13.6989 18.7563 13.0411 18.6203 12.2994C18.4679 11.4679 18.4679 10.6601 18.6623 10.1537C18.8797 9.58432 19.4149 9.3688 19.9047 9.1003C20.1305 8.97728 21.2224 8.80307 21.1813 8.27774C20.9275 7.79373 18.6095 8.34419 18.5165 7.59213C18.4225 6.83871 18.3893 6.46065 18.6834 5.85451C18.9919 5.22232 18.6371 5.30673 18.552 4.5403C18.5403 4.43119 18.782 4.14922 18.8011 4.04999C19.6009 4.50483 20.3521 5.04856 21.0261 5.69601C23.1374 7.72503 24.2999 10.4226 24.2999 13.2921C24.2999 15.4877 23.6142 17.5787 22.348 19.35ZM17.3743 19.0092C16.9134 19.7411 17.0242 20.2802 15.9727 20.8397C15.387 21.1516 14.9703 21.24 14.6605 22.0779C14.3493 22.914 13.8333 22.8846 12.5453 23.5638C11.2554 24.2448 10.7431 23.5638 10.638 23.0414C10.5334 22.5191 10.8513 21.2854 10.8513 21.2854C10.8513 21.2854 10.9773 20.9168 10.0635 20.5005C7.75247 19.4482 9.74649 15.7533 9.74649 15.7533C9.22429 15.1421 7.89822 13.9433 6.04682 13.5506C4.27679 13.1761 3.77202 12.1373 3.15012 11.1004C3.60526 9.18063 4.56158 7.4164 5.9735 5.98362C7.993 3.9351 10.6773 2.70001 13.5356 2.70001C13.5356 2.70001 14.4995 2.70001 15.4093 2.93895C14.5773 3.85485 13.6465 4.78072 12.9548 5.03599C11.7097 5.49847 11.1325 6.25612 11.1271 7.06319C11.1244 7.48124 11.99 8.23889 11.99 9.1974C11.99 10.8265 10.7945 10.8641 10.655 10.1777C10.3402 8.62066 9.13621 9.02284 7.69435 9.17881C6.25024 9.33615 5.37529 11.0364 6.30255 11.7166C7.23161 12.3967 7.18377 11.5016 7.54099 11.2464C7.89643 10.9907 8.1477 10.8895 8.41774 11.2464C8.68555 11.6032 9.26632 11.7973 9.21043 12.5295C9.1617 13.2613 9.00522 13.888 9.98658 13.888C10.9666 13.888 11.0006 14.1065 11.6225 14.4198C12.2381 14.7336 12.8211 14.6746 13.3348 14.7798C13.8508 14.8836 14.5268 15.8939 14.5268 15.8939C15.9892 16.3731 16.4703 16.569 16.874 16.9771C17.2764 17.3851 17.8406 18.277 17.3743 19.0092ZM13.4984 0H13.4912C8.13543 0 3.52147 3.12885 1.33917 7.65C0.483903 9.42165 1.00682e-07 11.4012 1.00682e-07 13.5C-0.000900184 20.9547 6.03596 27 13.493 27H13.5002C20.9546 27 27.0009 20.9547 27 13.5018C27.0009 5.97825 20.865 0 13.4984 0Z" fill="#FFA621"/>
</svg>
