<svg width="9" height="12" viewBox="0 0 9 12" fill="none" xmlns="http://www.w3.org/2000/svg">
<path fill-rule="evenodd" clip-rule="evenodd" d="M4.60132 6.60003C3.41417 6.60003 2.4538 5.65992 2.4538 4.50013C2.4538 3.34095 3.41417 2.40003 4.60132 2.40003C5.78805 2.40003 6.74925 3.34095 6.74925 4.50013C6.74925 5.65992 5.78805 6.60003 4.60132 6.60003ZM4.47935 0C1.98292 0 0 2.05766 0 4.59572C0 8.05566 3.79385 11.631 3.79385 11.631C4.30428 12.1036 4.62134 12.1421 5.16402 11.631C5.16402 11.631 9 8.05566 9 4.59572C9 2.05766 6.97557 0 4.47935 0Z" fill="#FFA621"/>
</svg>
